<svg width="218" height="121" fill="none" xmlns="http://www.w3.org/2000/svg"><g clip-path="url(#clip0_17_2)"><path d="M95.361 10.869c.894-1.72 3.465-1.29 3.753.626l3.719 24.809a2 2 0 0 0 1.648 1.676l24.744 4.13c1.911.318 2.297 2.896.564 3.761l-22.445 11.204a1.998 1.998 0 0 0-1.085 2.086l3.719 24.808c.287 1.916-2.045 3.08-3.404 1.7l-17.59-17.885a2 2 0 0 0-2.32-.387L64.22 78.6c-1.734.865-3.562-.993-2.668-2.712L73.125 53.63a2 2 0 0 0-.349-2.325L55.186 33.42c-1.36-1.381-.157-3.694 1.754-3.375l24.744 4.13a2 2 0 0 0 2.104-1.05L95.36 10.868z" fill="url(#paint0_linear_17_2)"/><path opacity=".4" d="M3.585 52.507L47.996 33.82a1 1 0 0 1 1.098.218l18.181 18.341a2 2 0 0 1 .344 2.351L56.436 75.65a1 1 0 0 1-1.27.45L3.584 54.35c-.816-.344-.815-1.5 0-1.843z" fill="url(#paint1_linear_17_2)"/><path d="M145.738 59.531c.869-1.732 3.446-1.34 3.761.571l2.722 16.508a2 2 0 0 0 1.673 1.652l16.541 2.513c1.916.291 2.34 2.863.619 3.753l-14.859 7.69a2 2 0 0 0-1.054 2.102l2.722 16.508c.315 1.911-2 3.109-3.379 1.748l-11.905-11.755a1.998 1.998 0 0 0-2.324-.353l-14.859 7.689c-1.721.891-3.576-.941-2.707-2.673l7.501-14.954a2 2 0 0 0-.383-2.32l-11.905-11.756c-1.378-1.361-.209-3.691 1.706-3.4l16.541 2.513a2 2 0 0 0 2.088-1.081l7.501-14.955z" fill="url(#paint2_linear_17_2)"/><path d="M155.748 72.85l-2.845-16.553a1 1 0 0 1 .641-1.108l64.212-23.62c1.006-.37 1.81.888 1.052 1.646l-44.753 44.728a1 1 0 0 1-.898.275l-15.027-2.932a3 3 0 0 1-2.382-2.437z" fill="url(#paint3_linear_17_2)"/></g><defs><linearGradient id="paint0_linear_17_2" x1="91" y1="16" x2="83.386" y2="94.18" gradientUnits="userSpaceOnUse"><stop stop-color="#2BFEF1"/><stop offset="1" stop-color="#1051BD"/></linearGradient><linearGradient id="paint1_linear_17_2" x1="107.194" y1="57.382" x2="-2.787" y2="51.193" gradientUnits="userSpaceOnUse"><stop stop-color="#0D93BD"/><stop offset="1" stop-color="#14C1CC" stop-opacity="0"/></linearGradient><linearGradient id="paint2_linear_17_2" x1="148.498" y1="54.029" x2="138.436" y2="120.269" gradientUnits="userSpaceOnUse"><stop stop-color="#FFEA2D"/><stop offset="1" stop-color="#FF6F31"/></linearGradient><linearGradient id="paint3_linear_17_2" x1="118.839" y1="118.998" x2="198.839" y2="46.998" gradientUnits="userSpaceOnUse"><stop stop-color="#BDAC0D"/><stop offset="1" stop-color="#FFD540" stop-opacity="0"/></linearGradient><clipPath id="clip0_17_2"><path fill="#fff" d="M0 0H218V120.995H0z"/></clipPath></defs></svg>