<svg width="218" height="121" fill="none" xmlns="http://www.w3.org/2000/svg"><g clip-path="url(#clip0_13_2)"><path fill="#fff" d="M0 0H218V120.995H0z"/><path d="M97.798 6.317c.447-.86 1.733-.645 1.876.313l4.283 28.571a1 1 0 0 0 .825.838l28.496 4.756c.955.16 1.148 1.448.282 1.881l-25.849 12.902a1 1 0 0 0-.543 1.043l4.283 28.571c.144.958-1.023 1.54-1.702.85L89.491 65.445a1 1 0 0 0-1.16-.194L62.482 78.153c-.867.433-1.78-.496-1.334-1.356l13.329-25.632a1 1 0 0 0-.174-1.162L54.044 29.406c-.68-.69-.078-1.847.878-1.688l28.496 4.756a1 1 0 0 0 1.052-.525L97.798 6.317z" fill="url(#paint0_linear_13_2)"/><path opacity=".4" d="M3.169 50.57L45.977 29.87a1 1 0 0 1 1.145.196l20.683 20.849a1 1 0 0 1 .18 1.159L54.47 78.549a1 1 0 0 1-1.36.427L3.133 52.354a1 1 0 0 1 .035-1.783z" fill="url(#paint1_linear_13_2)"/><path d="M147.118 54.78c.434-.866 1.723-.67 1.881.286l3.34 20.261a1 1 0 0 0 .837.826l20.302 3.084c.957.146 1.169 1.432.309 1.877l-18.237 9.438a.999.999 0 0 0-.527 1.05l3.34 20.262c.158.956-1 1.555-1.689.875L142.062 98.31a1 1 0 0 0-1.162-.176l-18.238 9.438c-.86.445-1.788-.471-1.353-1.337l9.207-18.355a1 1 0 0 0-.192-1.16l-14.612-14.428c-.689-.68-.105-1.846.853-1.7l20.302 3.084a1 1 0 0 0 1.044-.54l9.207-18.356z" fill="url(#paint2_linear_13_2)"/><path d="M156.977 71.183l-3.074-17.887a1 1 0 0 1 .641-1.107l64.612-23.767c.984-.363 1.791.841 1.082 1.614l-41.196 44.888a1 1 0 0 1-.894.311l-20.342-3.233a1 1 0 0 1-.829-.819z" fill="url(#paint3_linear_13_2)"/></g><defs><linearGradient id="paint0_linear_13_2" x1="99.218" y1="3.587" x2="84.403" y2="92.359" gradientUnits="userSpaceOnUse"><stop stop-color="#00F060"/><stop offset="1" stop-color="#0C8B56"/></linearGradient><linearGradient id="paint1_linear_13_2" x1="107.194" y1="55.382" x2="-2.787" y2="49.193" gradientUnits="userSpaceOnUse"><stop stop-color="#0DBD3F"/><stop offset="1" stop-color="#14CC48" stop-opacity="0"/></linearGradient><linearGradient id="paint2_linear_13_2" x1="148.498" y1="52.029" x2="138.435" y2="118.269" gradientUnits="userSpaceOnUse"><stop stop-color="#F93838"/><stop offset="1" stop-color="#C52E37"/></linearGradient><linearGradient id="paint3_linear_13_2" x1="119.839" y1="115.998" x2="199.839" y2="43.998" gradientUnits="userSpaceOnUse"><stop stop-color="#BD0D42"/><stop offset="1" stop-color="#CC1440" stop-opacity="0"/></linearGradient><clipPath id="clip0_13_2"><path fill="#fff" d="M0 0H218V120.995H0z"/></clipPath></defs></svg>